<?xml version="1.0" encoding="utf-8"?>
<!-- Generator: Adobe Illustrator 22.1.0, SVG Export Plug-In . SVG Version: 6.00 Build 0)  -->
<svg version="1.1" id="Layer_1" xmlns="http://www.w3.org/2000/svg" xmlns:xlink="http://www.w3.org/1999/xlink" x="0px" y="0px"
	 viewBox="0 0 282 66" style="enable-background:new 0 0 282 66;" xml:space="preserve">
<style type="text/css">
	.st0{display:none;}
	.st1{display:inline;fill:#FFFFFF;}
	.st2{fill:#FFFFFF;}
</style>
<g class="st0">
	<path class="st1" d="M80,15.3h6.8l6.5,25h0.1l7.8-25h6.1l7.6,25h0.1l6.8-25h6.3L118,50h-5.9l-8-26.4H104L96,50h-5.7L80,15.3z"/>
	<path class="st1" d="M135.2,40.3c0.4,3.5,3,5.6,6.3,5.6c2.9,0,4.9-1.4,6.3-3.2l4.2,3.2c-2.7,3.4-6.2,4.7-9.9,4.7
		c-7.1,0-12.8-4.9-12.8-12.3S135,26,142.1,26c6.6,0,11,4.6,11,12.8v1.6L135.2,40.3L135.2,40.3z M147.3,35.9c0-3.4-2.3-5.6-6-5.6
		c-3.5,0-5.6,2.2-6.1,5.6H147.3z"/>
	<path class="st1" d="M158.7,13h5.9v37h-5.9V13z"/>
	<path class="st1" d="M168.6,31.5v-5h4.8v-6.8h5.9v6.8h6.5v5h-6.5v10.3c0,2.4,0.7,3.8,3.3,3.8c1,0,2.5-0.2,3.2-0.7v4.9
		c-1.2,0.6-3.3,0.8-4.7,0.8c-6.2,0-7.7-2.8-7.7-8.3V31.5H168.6z"/>
	<path class="st1" d="M202.1,25.9c7.1,0,12.8,4.9,12.8,12.3s-5.7,12.3-12.8,12.3s-12.8-4.9-12.8-12.3S195,25.9,202.1,25.9z
		 M202.1,45.3c4.3,0,6.9-3.4,6.9-7.1s-2.6-7.1-6.9-7.1s-6.9,3.4-6.9,7.1S197.7,45.3,202.1,45.3z"/>
	<path class="st1" d="M220.3,26.5h5.6v3.8h0.1c1.1-2.4,3.3-4.4,7.2-4.4c6.3,0,8.6,4.5,8.6,9.3V50h-5.9V38.1c0-2.6-0.2-6.9-4.3-6.9
		c-3.9,0-5.4,2.8-5.4,6V50h-5.9L220.3,26.5L220.3,26.5z"/>
</g>
<g>
	<g>
		<polygon class="st2" points="72.9,3 60.9,3 54.9,18 60.9,33 		"/>
	</g>
	<g>
		<polygon class="st2" points="24.9,3 36.9,3 54.9,48 48.9,63 		"/>
	</g>
	<g>
		<polygon class="st2" points="0.9,3 12.9,3 30.9,48 24.9,63 		"/>
	</g>
</g>
</svg>
